<?xml version="1.0" encoding="UTF-8" standalone="no"?>
<!-- Generator: Adobe Illustrator 15.0.0, SVG Export Plug-In . SVG Version: 6.00 Build 0)  -->

<svg
   xmlns:dc="http://purl.org/dc/elements/1.1/"
   xmlns:cc="http://creativecommons.org/ns#"
   xmlns:rdf="http://www.w3.org/1999/02/22-rdf-syntax-ns#"
   xmlns:svg="http://www.w3.org/2000/svg"
   xmlns="http://www.w3.org/2000/svg"
   xmlns:sodipodi="http://sodipodi.sourceforge.net/DTD/sodipodi-0.dtd"
   xmlns:inkscape="http://www.inkscape.org/namespaces/inkscape"
   version="1.1"
   id="Icons"
   x="0px"
   y="0px"
   width="100"
   height="76.666046"
   viewBox="10 10 90 68.999442"
   xml:space="preserve"
   inkscape:version="0.48.5 r10040"
   sodipodi:docname="github.svg"><metadata
     id="metadata8"><rdf:RDF><cc:Work
         rdf:about=""><dc:format>image/svg+xml</dc:format><dc:type
           rdf:resource="http://purl.org/dc/dcmitype/StillImage" /></cc:Work></rdf:RDF></metadata><defs
     id="defs6" /><sodipodi:namedview
     pagecolor="#ffffff"
     bordercolor="#666666"
     borderopacity="1"
     objecttolerance="10"
     gridtolerance="10"
     guidetolerance="10"
     inkscape:pageopacity="0"
     inkscape:pageshadow="2"
     inkscape:window-width="640"
     inkscape:window-height="480"
     id="namedview4"
     showgrid="false"
     fit-margin-top="0"
     fit-margin-left="0"
     fit-margin-right="0"
     fit-margin-bottom="0"
     inkscape:zoom="2.36"
     inkscape:cx="55.555556"
     inkscape:cy="32.253821"
     inkscape:window-x="0"
     inkscape:window-y="27"
     inkscape:window-maximized="0"
     inkscape:current-layer="Icons" /><path
     id="Github__x28_alt_x29_"
     style="fill:#ffffff"
     d="m 75.709,10 c 1.17,2.657 1.928,7.07 0.797,10.301 4.625,3.949 6.214,13.549 3.982,21.394 6.592,0.503 14.443,-0.242 19.512,1.781 -4.738,-0.609 -11.209,-1.804 -17.32,-1.388 -1.158,0.079 -2.874,-0.044 -2.79,1.585 7.075,0.556 14.104,1.16 19.913,2.973 -5.761,-0.941 -12.754,-2.374 -19.913,-2.574 -2.957,5.835 -8.907,8.703 -17.122,9.307 0.883,1.921 2.574,2.653 2.987,5.744 0.616,4.618 -0.964,11.381 0.595,14.459 0.748,1.475 1.967,1.514 2.789,2.775 -2.012,2.381 -7.001,-0.267 -7.568,-2.775 -0.973,-4.295 1.482,-10.954 -1.193,-13.865 0.189,4.684 -1.108,11.264 0.199,15.449 0.515,1.646 2.002,2.281 1.593,3.765 -9.352,0.95 -5.444,-12.104 -6.972,-19.809 -1.411,0.1 -0.791,2.113 -0.796,2.972 -0.04,7.524 1.54,17.844 -6.57,16.837 -0.237,-1.581 1.088,-2.119 1.593,-3.563 1.479,-4.234 -0.277,-10.542 0.401,-15.651 -3.095,2.333 0.325,10.48 -1.593,14.657 -1.105,2.404 -4.666,3.45 -7.367,2.377 0.352,-1.79 2.2,-1.501 2.984,-3.169 1.096,-2.325 0.008,-5.674 0.399,-9.111 -5.729,1.143 -10.173,-0.166 -12.348,-3.764 -0.973,-1.615 -1.214,-3.52 -2.39,-4.951 -1.17,-1.432 -3.04,-1.625 -3.582,-3.564 7.095,-1.708 7.367,7.302 13.739,7.525 1.954,0.071 2.97,-0.564 4.778,-0.989 0.506,-2.272 1.589,-3.966 3.186,-5.153 C 39.703,52.49 33.155,50.021 30.11,44.071 22.902,44.426 16.306,45.388 10.197,46.842 15.742,44.828 22.581,44.106 29.912,43.869 29.48,41.273 25.693,41.987 23.342,42.087 18.973,42.281 13.473,42.824 10,43.476 15.034,41.681 22.098,41.905 28.918,41.891 26.832,35.351 27.555,24.962 32.104,21.093 30.815,17.844 31.215,12.53 32.9,10 c 5.079,0.228 8.159,2.443 11.35,4.557 3.957,-1.125 8.118,-1.685 13.54,-1.387 2.28,0.126 4.652,1.151 6.369,0.989 1.685,-0.158 3.542,-2.049 5.178,-2.771 2.131,-0.941 3.934,-1.3 6.372,-1.388 z"
     inkscape:connector-curvature="0" /></svg>