<?xml version="1.0" encoding="UTF-8" standalone="no"?>
<!-- Generator: Adobe Illustrator 15.0.0, SVG Export Plug-In . SVG Version: 6.00 Build 0)  -->

<svg
   xmlns:dc="http://purl.org/dc/elements/1.1/"
   xmlns:cc="http://creativecommons.org/ns#"
   xmlns:rdf="http://www.w3.org/1999/02/22-rdf-syntax-ns#"
   xmlns:svg="http://www.w3.org/2000/svg"
   xmlns="http://www.w3.org/2000/svg"
   xmlns:sodipodi="http://sodipodi.sourceforge.net/DTD/sodipodi-0.dtd"
   xmlns:inkscape="http://www.inkscape.org/namespaces/inkscape"
   version="1.1"
   id="Icons"
   x="0px"
   y="0px"
   width="89.999001"
   height="90"
   viewBox="0 0 89.999001 90"
   xml:space="preserve"
   inkscape:version="0.48.5 r10040"
   sodipodi:docname="linkedin.svg"><metadata
     id="metadata8"><rdf:RDF><cc:Work
         rdf:about=""><dc:format>image/svg+xml</dc:format><dc:type
           rdf:resource="http://purl.org/dc/dcmitype/StillImage" /></cc:Work></rdf:RDF></metadata><defs
     id="defs6" /><sodipodi:namedview
     pagecolor="#ffffff"
     bordercolor="#666666"
     borderopacity="1"
     objecttolerance="10"
     gridtolerance="10"
     guidetolerance="10"
     inkscape:pageopacity="0"
     inkscape:pageshadow="2"
     inkscape:window-width="640"
     inkscape:window-height="480"
     id="namedview4"
     showgrid="false"
     fit-margin-top="0"
     fit-margin-left="0"
     fit-margin-right="0"
     fit-margin-bottom="0"
     inkscape:zoom="2.36"
     inkscape:cx="45.476"
     inkscape:cy="45.608"
     inkscape:window-x="0"
     inkscape:window-y="27"
     inkscape:window-maximized="0"
     inkscape:current-layer="Icons" /><path
     id="LinkedIn__x28_alt_x29_"
     style="fill:#ffffff"
     d="M 83.353,0 H 6.65 C 2.977,0 0,2.886 0,6.448 V 83.549 C 0,87.111 2.978,90 6.65,90 h 76.703 c 3.673,0 6.646,-2.89 6.646,-6.451 V 6.448 C 89.999,2.887 87.026,0 83.353,0 z M 27.285,75.336 H 13.687 V 34.702 H 27.285 V 75.336 z M 20.487,29.151 h -0.091 c -4.56,0 -7.516,-3.119 -7.516,-7.023 0,-3.983 3.043,-7.017 7.693,-7.017 4.651,0 7.512,3.033 7.602,7.017 0,3.905 -2.95,7.023 -7.688,7.023 z M 76.303,75.336 H 62.709 v -21.74 c 0,-5.464 -1.97,-9.191 -6.886,-9.191 -3.761,0 -5.993,2.515 -6.973,4.942 -0.364,0.868 -0.453,2.08 -0.453,3.292 V 75.335 H 34.805 c 0,0 0.178,-36.823 0,-40.634 h 13.593 v 5.761 c 1.805,-2.768 5.029,-6.717 12.249,-6.717 8.947,0 15.656,5.804 15.656,18.291 v 23.3 z M 48.31,40.591 c 0.024,-0.038 0.056,-0.084 0.088,-0.128 v 0.128 H 48.31 z"
     inkscape:connector-curvature="0" /></svg>